<?xml version="1.0" encoding="UTF-8"?>
<svg version="1.1" xmlns="http://www.w3.org/2000/svg" width="1080" height="1080">
<path d="M0 0 C356.4 0 712.8 0 1080 0 C1080 356.4 1080 712.8 1080 1080 C723.6 1080 367.2 1080 0 1080 C0 723.6 0 367.2 0 0 Z " fill="#1E3A8A" transform="translate(0,0)"/>
<path d="M0 0 C0.66 0 1.32 0 2 0 C3.70047804 1.76941634 5.20805753 3.66443425 6.7578125 5.56640625 C8.53083264 7.49078177 10.21534009 9.0545845 12.20654297 10.72241211 C18.37520342 16.08904692 24.06340786 21.95334336 29.82424927 27.74908447 C31.97538337 29.91311041 34.12973789 32.07388478 36.28491211 34.23388672 C41.63417053 39.59643673 46.97794525 44.96444046 52.32189941 50.33227539 C56.84844978 54.87862986 61.37709261 59.42288075 65.90847778 63.9644165 C68.01975925 66.08212905 70.12798008 68.20285548 72.23608398 70.32373047 C77.63640465 75.74447409 83.0001714 81.10617556 88.8359375 86.06079102 C93.97929478 90.66973584 98.77212631 95.66700128 103.63905334 100.56388855 C105.75658088 102.69431126 107.8773315 104.82147922 109.99890137 106.94787598 C115.2646852 112.22694934 120.52498392 117.51147737 125.78546143 122.7958374 C130.24155061 127.27173302 134.69973385 131.74552329 139.16065979 136.21659851 C141.23870342 138.30107178 143.31368535 140.38855921 145.3885498 142.47619629 C152.50195331 149.69265072 152.50195331 149.69265072 160 156.5 C165.87831852 161.49364669 171.20609214 167.09748266 176.63905334 172.56388855 C178.75658088 174.69431126 180.8773315 176.82147922 182.99890137 178.94787598 C188.2646852 184.22694934 193.52498392 189.51147737 198.78546143 194.7958374 C203.24155061 199.27173302 207.69973385 203.74552329 212.16065979 208.21659851 C214.23870342 210.30107178 216.31368535 212.38855921 218.3885498 214.47619629 C225.49466269 221.68634341 225.49466269 221.68634341 232.98632812 228.48632812 C238.93543848 233.54023221 244.32556431 239.21708798 249.82424927 244.74908447 C251.97538337 246.91311041 254.12973789 249.07388478 256.28491211 251.23388672 C261.63417053 256.59643673 266.97794525 261.96444046 272.32189941 267.33227539 C276.84844978 271.87862986 281.37709261 276.42288075 285.90847778 280.9644165 C288.01975925 283.08212905 290.12798008 285.20285548 292.23608398 287.32373047 C293.5439581 288.63524072 294.85197486 289.94660875 296.16015625 291.2578125 C296.73597443 291.838797 297.3117926 292.41978149 297.90505981 293.01837158 C300.8320505 295.94573421 303.82025642 298.74626556 306.95310974 301.45310974 C311.0108769 304.96495287 314.81168931 308.68410272 318.59008789 312.49243164 C319.30177628 313.20558029 320.01346466 313.91872894 320.74671936 314.65348816 C322.27773024 316.18827804 323.80758582 317.7242211 325.33638191 319.26121712 C327.76029485 321.69799461 330.1874062 324.13154612 332.61534119 326.5643158 C337.76721572 331.72756804 342.91514563 336.89474201 348.0625 342.0625 C354.03446133 348.05811597 360.0080577 354.05208372 365.98589897 360.04183769 C368.36921902 362.43160823 370.7494912 364.82438585 373.12965393 367.21730042 C374.599389 368.69067005 376.0692658 370.16389833 377.53930664 371.63696289 C378.193526 372.29634857 378.84774536 372.95573425 379.52178955 373.63510132 C383.0722527 377.1859677 386.70331656 380.53592306 390.58536625 383.72293472 C392.48272739 385.43578374 393.44103263 387.16771636 394.4296875 389.51171875 C396.35956641 393.72415682 398.51268688 397.72881987 400.8828125 401.70703125 C401.22689148 402.28613251 401.57097046 402.86523376 401.92547607 403.46188354 C402.98921138 405.24709417 404.05700094 407.02983762 405.125 408.8125 C405.84797722 410.02519933 406.57063526 411.238089 407.29296875 412.45117188 C409.19104094 415.63667837 411.09420652 418.81910535 413 422 C413.60868408 423.30705414 413.60868408 423.30705414 414.2296648 424.64051342 C415.799644 427.25976972 415.799644 427.25976972 418.71174908 427.63085651 C420.36682838 427.63500458 420.36682838 427.63500458 422.05534363 427.63923645 C423.32159073 427.65452393 424.58783783 427.6698114 425.89245605 427.68556213 C427.29834262 427.67730971 428.70422646 427.66858092 430.11010742 427.65942383 C431.58837742 427.66787445 433.06663629 427.67851737 434.5448761 427.69119263 C438.56125383 427.7193996 442.57709863 427.71685686 446.59354568 427.70889878 C450.78968336 427.70577909 454.98564968 427.73079222 459.18171692 427.75285339 C467.12899055 427.79034574 475.07609305 427.80244444 483.02344638 427.8054778 C492.07058487 427.81016302 501.11755133 427.84306903 510.16461408 427.87837565 C528.7763928 427.95037524 547.38809138 427.98683729 566 428 C566.22284668 426.13921814 566.22284668 426.13921814 566.45019531 424.24084473 C566.94310112 420.12505451 567.79007209 416.1234023 568.75 412.09375 C568.92365082 411.34910995 569.09730164 410.60446991 569.2762146 409.83726501 C569.65105222 408.23142493 570.02768347 406.62600264 570.40594482 405.02096558 C571.43777924 400.64221568 572.45652844 396.2604173 573.4765625 391.87890625 C573.68769684 390.97342545 573.89883118 390.06794464 574.11636353 389.13502502 C575.50979249 383.14703661 576.8735246 377.15308133 578.2109375 371.15234375 C578.38922089 370.35245026 578.56750427 369.55255676 578.75119019 368.72842407 C579.11149264 367.1108787 579.47171192 365.49331481 579.83184814 363.87573242 C583.50434575 347.38973016 587.37832128 330.95839407 591.33920288 314.53942871 C594.55915179 301.18135006 597.62472871 287.80556334 600.50610352 274.37060547 C602.85080054 263.50555365 605.44920533 252.71232999 608.09277344 241.91723633 C608.4290876 240.54379507 608.76535123 239.17034144 609.1015625 237.796875 C609.26539429 237.12766525 609.42922607 236.45845551 609.59802246 235.76896667 C611.87844512 226.43181827 614.01174512 217.06113702 616.15332031 207.69140625 C617.11440862 203.50119426 618.08388487 199.31296971 619.0546875 195.125 C623.67706828 175.18615757 623.67706828 175.18615757 628.19140625 155.22265625 C628.37092331 154.41832153 628.55044037 153.61398682 628.73539734 152.78527832 C629.09921428 151.15480814 629.46301939 149.52433531 629.82681274 147.89385986 C630.00771454 147.08326111 630.18861633 146.27266235 630.375 145.4375 C630.64719864 144.21773468 630.64719864 144.21773468 630.92489624 142.97332764 C634.24439264 128.12486298 637.77118028 113.32988329 641.33920288 98.53942871 C644.55685401 85.19088246 647.62176642 71.82489868 650.49951172 58.39916992 C653.17463261 45.99787777 656.17436818 33.68208522 659.203125 21.36328125 C660.86724212 14.59011078 662.45302019 7.80080556 664 1 C664.66 1 665.32 1 666 1 C666.25523437 2.10396118 666.25523437 2.10396118 666.515625 3.23022461 C667.34199732 6.79972447 668.17035445 10.36875979 669 13.9375 C669.15550323 14.60658386 669.31100647 15.27566772 669.47122192 15.96502686 C671.26565906 23.67717212 673.08092596 31.38339448 674.96484375 39.07421875 C675.12671677 39.73509995 675.28858978 40.39598114 675.45536804 41.07688904 C675.78385504 42.41736816 676.11238195 43.75783749 676.44094849 45.09829712 C679.6541004 58.21295703 682.67193406 71.36023842 685.56710815 84.54864502 C687.76653536 94.56157042 690.05793954 104.54273129 692.5 114.5 C695.12902993 125.2196189 697.57147411 135.97016636 699.9375 146.75 C702.4880727 158.36927565 705.15739784 169.948689 708 181.5 C711.02955007 193.81099993 713.84752227 206.1578582 716.56536865 218.54122925 C719.06881302 229.9386016 721.72167583 241.28708213 724.49633789 252.62207031 C726.70392066 261.67423098 728.74221812 270.75646348 730.73535156 279.85791016 C732.50949268 287.91166935 734.41421808 295.92731016 736.375 303.9375 C739.06306231 314.9286881 741.57123508 325.94923643 744 337 C746.69496068 349.25805358 749.51360185 361.47369367 752.48950195 373.66723633 C755.20335526 384.78990527 757.79168757 395.93865428 760.33007812 407.10253906 C760.96358346 409.84249579 761.62479485 412.57397416 762.296875 415.3046875 C762.49128174 416.11591064 762.68568848 416.92713379 762.88598633 417.76293945 C763.23607975 419.2226694 763.59668458 420.67994985 763.97143555 422.13354492 C766.21473217 431.6672593 763.2390894 440.69112214 760.90649414 449.94995117 C759.98299808 453.62060409 759.0802055 457.29630809 758.1796875 460.97265625 C757.99496887 461.72656647 757.81025024 462.48047668 757.61993408 463.25723267 C755.78172841 470.81026497 754.12805039 478.39940593 752.5 486 C750.03524749 497.4827246 747.36397461 508.89956449 744.55712891 520.30322266 C741.88600708 531.17059294 739.39564236 542.06876394 737 553 C734.45331528 564.62043728 731.78073077 576.19851653 728.9375 587.75 C726.29925018 598.46884669 723.81860839 609.207493 721.5 620 C719.13640358 630.99911163 716.61354341 641.94762486 713.9375 652.875 C713.68200882 653.91850616 713.68200882 653.91850616 713.4213562 654.98309326 C713.25193512 655.67493713 713.08251404 656.36678101 712.90795898 657.07958984 C712.57139885 658.45408859 712.23489107 659.82860016 711.8984375 661.203125 C711.73459061 661.87240021 711.57074371 662.54167542 711.40193176 663.23123169 C709.12151339 672.56831113 706.98823971 681.93892935 704.84667969 691.30859375 C703.88559138 695.49880574 702.91611478 699.68703021 701.9453125 703.875 C697.27195202 724.04275151 697.27195202 724.04275151 692.703125 744.234375 C692.51542038 745.07418915 692.32771576 745.9140033 692.13432312 746.77926636 C691.75677276 748.46910664 691.3792651 750.15895647 691.00180054 751.84881592 C690.81558136 752.68245667 690.62936218 753.51609741 690.4375 754.375 C690.25120026 755.20912415 690.06490051 756.04324829 689.87295532 756.90264893 C687.17275082 768.97506382 684.33470165 781.00630985 681.37823486 793.01834106 C678.69803009 803.92083801 676.23905686 814.86016146 673.87710571 825.83569336 C671.48296413 836.95391983 668.87016531 847.9954952 666 859 C665.34 859 664.68 859 664 859 C663.0489804 857.56410068 662.10188802 856.12539185 661.17827415 854.67171288 C659.23246912 851.91104184 656.70830785 849.77368597 654.18676758 847.55786133 C647.23469908 841.29042835 640.61382146 834.73105658 634.01749229 828.09265709 C631.95423848 826.01637554 629.88764532 823.94346618 627.82026672 821.87129211 C623.43981091 817.4795466 619.06335766 813.08382641 614.6875 808.6875 C609.59169899 803.56796708 604.4941996 798.45014801 599.39246559 793.33652687 C597.36980132 791.30744592 595.35020233 789.27534903 593.33073425 787.24308777 C586.37335153 780.18980138 586.37335153 780.18980138 579.03833008 773.53833008 C573.08275741 768.47367974 567.68286502 762.79139242 562.17575073 757.25091553 C560.02461663 755.08688959 557.87026211 752.92611522 555.71508789 750.76611328 C550.36582947 745.40356327 545.02205475 740.03555954 539.67810059 734.66772461 C535.15155022 730.12137014 530.62290739 725.57711925 526.09152222 721.0355835 C523.98024075 718.91787095 521.87201992 716.79714452 519.76391602 714.67626953 C512.57686533 707.38080852 512.57686533 707.38080852 505 700.5 C499.05446496 695.45206952 493.66975935 689.77820736 488.17575073 684.25091553 C486.02461663 682.08688959 483.87026211 679.92611522 481.71508789 677.76611328 C476.36582947 672.40356327 471.02205475 667.03555954 465.67810059 661.66772461 C461.15155022 657.12137014 456.62290739 652.57711925 452.09152222 648.0355835 C449.98024075 645.91787095 447.87201992 643.79714452 445.76391602 641.67626953 C438.57686533 634.38080852 438.57686533 634.38080852 431 627.5 C425.05446496 622.45206952 419.66975935 616.77820736 414.17575073 611.25091553 C412.02461663 609.08688959 409.87026211 606.92611522 407.71508789 604.76611328 C402.36582947 599.40356327 397.02205475 594.03555954 391.67810059 588.66772461 C387.15155022 584.12137014 382.62290739 579.57711925 378.09152222 575.0355835 C375.98024075 572.91787095 373.87201992 570.79714452 371.76391602 568.67626953 C370.4560419 567.36475928 369.14802514 566.05339125 367.83984375 564.7421875 C367.26402557 564.161203 366.6882074 563.58021851 366.09494019 562.98162842 C363.16009967 560.04641496 360.16312108 557.23832367 357.02294922 554.52294922 C353.10984829 551.13645462 349.43570225 547.56404813 345.79296875 543.890625 C345.12190094 543.21809692 344.45083313 542.54556885 343.75942993 541.85266113 C342.3168177 540.40627216 340.87536071 538.95873019 339.43496704 537.51013184 C337.14940713 535.21169248 334.86063672 532.91649291 332.57104492 530.62207031 C326.88788781 524.925614 321.21020913 519.22370741 315.53234863 513.52197266 C310.7239539 508.69378244 305.91347257 503.86768926 301.10025024 499.04431152 C298.8560172 496.79364201 296.61484077 494.53995969 294.3737793 492.28613281 C292.98501306 490.8937308 291.5961044 489.50147082 290.20703125 488.109375 C289.59381012 487.49098755 288.98058899 486.8726001 288.3487854 486.23547363 C284.6021218 482.48836117 280.72733479 478.96239331 276.68481159 475.53565598 C274.52588267 473.56785606 273.14019143 471.5206619 271.76171875 468.953125 C271.25060547 468.02371094 270.73949219 467.09429688 270.21289062 466.13671875 C269.70951172 465.18410156 269.20613281 464.23148438 268.6875 463.25 C267.13844765 460.39552083 265.58695679 457.55565583 263.94555664 454.75294495 C262.40841851 451.99279743 261.40348593 449.27280173 260.43762207 446.26817322 C258.32526878 440.5653063 255.93175336 435.73730132 251 432 C241.04219807 428.61028032 229.76770108 429.59683679 219.39337373 429.87158608 C215.19081224 429.96273169 210.98867039 429.94541209 206.7853241 429.93998718 C198.84000582 429.94601668 190.89902539 430.04845885 182.9550187 430.18625563 C173.90556684 430.33848109 164.85658558 430.38216399 155.80603945 430.41709387 C137.20200816 430.49130795 118.60170315 430.70064953 100 431 C99.93511163 431.61357707 99.87022326 432.22715414 99.80336857 432.85932446 C99.67266547 434.07016437 99.67266547 434.07016437 99.5393219 435.3054657 C99.45380853 436.10466777 99.36829515 436.90386984 99.28019047 437.72729015 C98.93437458 440.53230766 98.34429348 443.21768151 97.65234375 445.95703125 C97.38107666 447.05047852 97.10980957 448.14392578 96.83032227 449.27050781 C96.53569092 450.43936523 96.24105957 451.60822266 95.9375 452.8125 C95.29657876 455.40688776 94.65769566 458.00164388 94.0234375 460.59765625 C93.85777786 461.27533051 93.69211823 461.95300476 93.5214386 462.6512146 C91.57799847 470.65657525 89.82470861 478.70322198 88.0625 486.75 C85.3446057 499.14180852 82.46484595 511.481654 79.43289185 523.8001709 C76.96646884 533.83586818 74.67061622 543.89635728 72.5 554 C70.13640125 564.99912248 67.61321565 575.94753872 64.9375 586.875 C64.76717255 587.57100311 64.59684509 588.26700623 64.4213562 588.98410034 C64.08096975 590.37488339 63.74058179 591.76566607 63.40019226 593.15644836 C63.23461319 593.83314072 63.06903412 594.50983307 62.8984375 595.20703125 C62.73459061 595.87651291 62.57074371 596.54599457 62.40193176 597.23576355 C59.05346762 610.9449643 55.95634184 624.71313432 52.875 638.484375 C52.10437232 641.92712941 51.33350958 645.3698311 50.5625 648.8125 C50.36875793 649.67807526 50.17501587 650.54365051 49.97540283 651.43545532 C47.29753335 663.38745175 44.50839838 675.30319769 41.59179688 687.19946289 C39.09490073 697.45036957 36.81945816 707.74466282 34.55786133 718.04931641 C32.00320786 729.67305142 29.27716098 741.2441987 26.43289185 752.8001709 C23.96646884 762.83586818 21.67061622 772.89635728 19.5 783 C16.83918474 795.38223401 13.94378774 807.69366478 10.92773438 819.99389648 C10.59626556 821.34616969 10.26488466 822.69846445 9.93359375 824.05078125 C9.77160492 824.71200485 9.60961609 825.37322845 9.44271851 826.05448914 C6.84890375 836.67633231 4.4253827 847.33865472 2 858 C1.34 858 0.68 858 0 858 C-3.79473165 843.38940878 -7.21433931 828.7199019 -10.44992065 813.9777832 C-12.70658183 803.70458911 -15.05501416 793.46542084 -17.5625 783.25 C-20.0553464 773.09338306 -22.36134606 762.91014649 -24.5625 752.6875 C-26.54048698 743.50206478 -28.60070775 734.35194028 -30.9375 725.25 C-33.68651545 714.54087246 -36.08201074 703.76667888 -38.45184326 692.96899414 C-40.70786393 682.69873372 -43.05572997 672.46250467 -45.5625 662.25 C-48.22261007 651.41189983 -50.65685636 640.53977637 -53.00515747 629.63122559 C-54.85610466 621.04742751 -56.81715887 612.50602959 -59 604 C-61.33579687 594.89729641 -63.40090037 585.74923181 -65.375 576.5625 C-67.75272149 565.49827535 -70.29377206 554.48845805 -73 543.5 C-75.63910904 532.78097517 -78.12383552 522.04391889 -80.4375 511.25 C-82.95409334 499.51276325 -85.69743469 487.84442884 -88.5625 476.1875 C-94.21258655 453.12051784 -94.21258655 453.12051784 -96.625 442.6875 C-96.88482666 441.60944092 -97.14465332 440.53138184 -97.41235352 439.4206543 C-98.71839204 433.67140147 -99.3103637 428.81041132 -98 423 C-97.80100098 422.07646729 -97.60200195 421.15293457 -97.39697266 420.20141602 C-96.6303881 416.77183384 -95.81886806 413.35496984 -95 409.9375 C-94.52651619 407.93790614 -94.05472297 405.93791742 -93.58291626 403.93792725 C-93.24792162 402.51842218 -92.91244171 401.09903156 -92.57650757 399.67974854 C-90.56257279 391.16846668 -88.59200422 382.6472295 -86.625 374.125 C-86.43721985 373.3124173 -86.2494397 372.49983459 -86.05596924 371.66262817 C-83.30648318 359.76024389 -80.61193959 347.84626516 -77.94540405 335.92504883 C-74.89337633 322.28065119 -71.76089391 308.6647983 -68.44824219 295.08105469 C-65.82582425 284.32701405 -63.33401595 273.54549096 -60.86279297 262.75585938 C-59.89413728 258.53916464 -58.918342 254.32415732 -57.94140625 250.109375 C-53.32114545 230.17830636 -53.32114545 230.17830636 -48.80859375 210.22265625 C-48.62907669 209.41832153 -48.44955963 208.61398682 -48.26460266 207.78527832 C-47.90078572 206.15480814 -47.53698061 204.52433531 -47.17318726 202.89385986 C-46.99228546 202.08326111 -46.81138367 201.27266235 -46.625 200.4375 C-46.44353424 199.62432312 -46.26206848 198.81114624 -46.07510376 197.97332764 C-42.75560736 183.12486298 -39.22881972 168.32988329 -35.66079712 153.53942871 C-32.44084821 140.18135006 -29.37527129 126.80556334 -26.49389648 113.37060547 C-24.14919946 102.50555365 -21.55079467 91.71232999 -18.90722656 80.91723633 C-18.5709124 79.54379507 -18.23464877 78.17034144 -17.8984375 76.796875 C-17.73460571 76.12766525 -17.57077393 75.45845551 -17.40197754 74.76896667 C-15.13437769 65.48432104 -13.01166462 56.16659244 -10.88183594 46.84960938 C-9.19768505 39.49753541 -7.50038563 32.14848761 -5.80441284 24.7991333 C-5.19669599 22.16486186 -4.58962683 19.53044182 -3.98266602 16.89599609 C-3.60695268 15.26659716 -3.2312211 13.63720244 -2.85546875 12.0078125 C-2.68282501 11.25796082 -2.51018127 10.50810913 -2.33230591 9.73553467 C-1.58180642 6.48329197 -0.8281122 3.23348068 0 0 Z " fill="#FEFEFE" transform="translate(207,111)"/>
<path d="M0 0 C2.81784037 2.5083512 4.45723723 5.29922938 6.30078125 8.57421875 C6.94088135 9.70424316 7.58098145 10.83426758 8.24047852 11.99853516 C8.57782013 12.59917786 8.91516174 13.19982056 9.26272583 13.81866455 C11.05593474 17.01098198 12.86525434 20.19416646 14.671875 23.37890625 C15.03801407 24.02543152 15.40415314 24.67195679 15.78138733 25.33807373 C19.15857138 31.29631597 22.60040698 37.21571118 26.0625 43.125 C30.86824907 51.3343951 35.63376298 59.56568846 40.375 67.8125 C45.49271117 76.70905577 50.68657657 85.55646964 55.9375 94.375 C62.11909609 104.76038225 68.15853218 115.21761037 74.13598633 125.72119141 C80.11024791 136.21665164 86.18492884 146.65147527 92.28662109 157.07324219 C95.17381184 162.00508069 98.05639926 166.9396018 100.9375 171.875 C101.5140332 172.86234131 102.09056641 173.84968262 102.68457031 174.86694336 C106.94224279 182.16640213 111.16205109 189.48716354 115.375 196.8125 C120.49286212 205.70897061 125.68657508 214.55646714 130.9375 223.375 C137.11909609 233.76038225 143.15853218 244.21761037 149.13598633 254.72119141 C155.11024791 265.21665164 161.18492884 275.65147527 167.28662109 286.07324219 C170.17381184 291.00508069 173.05639926 295.9396018 175.9375 300.875 C176.5140332 301.86234131 177.09056641 302.84968262 177.68457031 303.86694336 C181.94224279 311.16640213 186.16205109 318.48716354 190.375 325.8125 C196.14564913 335.84372185 202.02558418 345.8057006 207.9465332 355.7487793 C213.42319612 364.97036189 218.74384774 374.27391907 224.03491211 383.60253906 C227.40579141 389.52592425 230.81998954 395.41418574 234.33984375 401.25 C234.69160172 401.83321014 235.04335968 402.41642029 235.40577698 403.01730347 C237.08920232 405.80325231 238.78095318 408.58384749 240.48071289 411.35986328 C241.07489014 412.33681152 241.66906738 413.31375977 242.28125 414.3203125 C242.80783203 415.17898926 243.33441406 416.03766602 243.87695312 416.92236328 C245 419 245 419 245 421 C196.16 421 147.32 421 97 421 C87.99501258 382.72880346 87.99501258 382.72880346 84.9503479 368.99810791 C81.91551151 355.32482005 78.76513534 341.6878045 75.44848633 328.08007812 C71.7548981 312.92492088 68.27669591 297.72222204 64.87109375 282.5 C64.10173954 279.06246034 63.33220536 275.62496105 62.5625 272.1875 C62.36884857 271.32228729 62.17519714 270.45707458 61.97567749 269.56564331 C59.29771188 257.6132824 56.50848802 245.69716793 53.59179688 233.80053711 C51.09457036 223.54827411 48.81927401 213.25255145 46.55685425 202.94665527 C44.17149094 192.09627869 41.65464887 181.28753653 39 170.5 C36.15739597 158.9486814 33.488332 147.36922327 30.9375 135.75 C28.26056676 123.55840323 25.45630275 111.41083628 22.49926758 99.28344727 C18.76215401 83.95564992 15.24457819 68.57970153 11.80078125 53.18359375 C11.21114411 50.54889285 10.62144338 47.91420621 10.03164673 45.27954102 C9.63719932 43.51722075 9.24297138 41.75485135 8.84896851 39.99243164 C6.48001864 29.40530667 4.08046715 18.83399514 1.32006836 8.34033203 C0.56857503 5.46214301 0 2.99113724 0 0 Z " fill="#1E3A8A" transform="translate(210,117)"/>
<path d="M0 0 C48.51 0 97.02 0 147 0 C156.00532569 38.27263417 156.00532569 38.27263417 159.04910278 51.99914551 C162.03109719 65.43593466 165.13121481 78.83335872 168.40869141 92.20141602 C170.90572402 102.45303437 173.18087005 112.74810478 175.44314575 123.05334473 C177.82850906 133.90372131 180.34535113 144.71246347 183 155.5 C186.02955007 167.81099993 188.84752227 180.1578582 191.56536865 192.54122925 C194.06881302 203.9386016 196.72167583 215.28708213 199.49633789 226.62207031 C201.70392066 235.67423098 203.74221812 244.75646348 205.73535156 253.85791016 C207.50949268 261.91166935 209.41421808 269.92731016 211.375 277.9375 C214.0630601 288.92867907 216.57148392 299.94918734 219 311 C221.64368222 323.02952972 224.41787905 335.01483584 227.35327148 346.97729492 C229.916589 357.49278022 232.25529024 368.05282234 234.568573 378.62545776 C236.94706197 389.48794296 239.47356768 400.29330566 242.36157227 411.03442383 C242.59416748 411.92154053 242.8267627 412.80865723 243.06640625 413.72265625 C243.3749353 414.86359741 243.3749353 414.86359741 243.68969727 416.02758789 C244 418 244 418 243 421 C242.74009277 420.51982422 242.48018555 420.03964844 242.21240234 419.54492188 C234.98918939 406.23191734 227.46528522 393.11476296 219.79394531 380.05566406 C216.87497887 375.08372829 213.96815729 370.10472227 211.0625 365.125 C210.48781982 364.14047852 209.91313965 363.15595703 209.32104492 362.14160156 C204.38809447 353.6827618 199.49615326 345.20054885 194.60791016 336.71582031 C188.11500122 325.4520275 181.56057444 314.22447236 175 303 C172.68667962 299.04214526 170.37404251 295.08389337 168.0625 291.125 C167.48604736 290.13781982 166.90959473 289.15063965 166.31567383 288.13354492 C162.05798345 280.83388651 157.83803948 273.51299394 153.625 266.1875 C148.50713788 257.29102939 143.31342492 248.44353286 138.0625 239.625 C131.88090391 229.23961775 125.84146782 218.78238963 119.86401367 208.27880859 C113.88975209 197.78334836 107.81507116 187.34852473 101.71337891 176.92675781 C98.82618816 171.99491931 95.94360074 167.0603982 93.0625 162.125 C92.4859668 161.13765869 91.90943359 160.15031738 91.31542969 159.13305664 C87.05775721 151.83359787 82.83794891 144.51283646 78.625 137.1875 C73.50713788 128.29102939 68.31342492 119.44353286 63.0625 110.625 C56.88090391 100.23961775 50.84146782 89.78238963 44.86401367 79.27880859 C38.89559078 68.79360566 32.82681261 58.36902508 26.73095703 47.95751953 C22.59724299 40.89464056 18.47494918 33.82509417 14.35546875 26.75390625 C12.13633592 22.94481263 9.90902828 19.14067756 7.67578125 15.33984375 C6.65875953 13.60161787 5.64182758 11.86333946 4.625 10.125 C3.91887573 8.92943481 3.91887573 8.92943481 3.19848633 7.7097168 C0 2.22651053 0 2.22651053 0 0 Z " fill="#1E3A8A" transform="translate(626,543)"/>
</svg>
